<svg id="Layer_1" data-name="Layer 1" xmlns="http://www.w3.org/2000/svg" viewBox="0 0 400.94 399.98"><defs><style>.cls-1{fill:#e6e7e8;}</style></defs><title>globe</title><path class="cls-1" d="M457.26,875.51h74.43v76.71H448.78a403.77,403.77,0,0,1,8.48-76.71Z" transform="translate(-339.43 -760.44)"/><path class="cls-1" d="M457.26,1045.35h74.43V968.64H448.78a404.05,404.05,0,0,0,8.48,76.71Z" transform="translate(-339.43 -760.44)"/><path class="cls-1" d="M531.69,859.05V760.44c-30.12,5.91-56,44-70.57,98.61Z" transform="translate(-339.43 -760.44)"/><path class="cls-1" d="M639.68,1045.35H721.8a198.82,198.82,0,0,0,18.57-76.71H647.44a430.41,430.41,0,0,1-7.75,76.71Z" transform="translate(-339.43 -760.44)"/><path class="cls-1" d="M639.68,875.51a434.24,434.24,0,0,1,7.79,76.71h92.89a199.41,199.41,0,0,0-18.57-76.71Z" transform="translate(-339.43 -760.44)"/><path class="cls-1" d="M636,859.05h77.19a201,201,0,0,0-123.86-93.14c20.25,20.06,36.52,52.5,46.66,93.14Z" transform="translate(-339.43 -760.44)"/><path class="cls-1" d="M531.69,1160.39v-98.61H461.13c14.59,54.58,40.44,92.69,70.57,98.61Z" transform="translate(-339.43 -760.44)"/><path class="cls-1" d="M618.68,859.05c-14.55-54.54-40.39-92.7-70.57-98.61v98.61Z" transform="translate(-339.43 -760.44)"/><path class="cls-1" d="M631,968.64H548.11v76.71h74.48A405,405,0,0,0,631,968.64Z" transform="translate(-339.43 -760.44)"/><path class="cls-1" d="M339.43,968.64A199.59,199.59,0,0,0,358,1045.35h82.07a430.41,430.41,0,0,1-7.75-76.71Z" transform="translate(-339.43 -760.44)"/><path class="cls-1" d="M443.87,1061.78H366.68a200.76,200.76,0,0,0,123.86,93.17c-20.25-20.1-36.52-52.53-46.66-93.17Z" transform="translate(-339.43 -760.44)"/><path class="cls-1" d="M636,1061.78c-10.15,40.64-26.41,73.07-46.66,93.17a201,201,0,0,0,123.86-93.17Z" transform="translate(-339.43 -760.44)"/><path class="cls-1" d="M443.87,859.05C454,818.41,470.24,786,490.5,765.91a200.92,200.92,0,0,0-123.82,93.14Z" transform="translate(-339.43 -760.44)"/><path class="cls-1" d="M622.59,875.51H548.11v76.71H631a404.71,404.71,0,0,0-8.43-76.71Z" transform="translate(-339.43 -760.44)"/><path class="cls-1" d="M358,875.51a198.71,198.71,0,0,0-18.62,76.71h92.93a430.52,430.52,0,0,1,7.75-76.71Z" transform="translate(-339.43 -760.44)"/><path class="cls-1" d="M548.11,1061.78v98.64c30.17-5.91,56-44.06,70.57-98.64Z" transform="translate(-339.43 -760.44)"/><path class="cls-1" d="M548.11,1061.78" transform="translate(-339.43 -760.44)"/></svg>